<mxfile host="app.diagrams.net" modified="2025-01-02T23:36:49.584Z" agent="Mozilla/5.0 (Macintosh; Intel Mac OS X 10_15_7) AppleWebKit/537.36 (KHTML, like Gecko) Chrome/131.0.0.0 Safari/537.36" version="24.1.0" etag="B9AXSlVFaOWeNVh0hYcw" type="github">
  <diagram name="Page-1" id="Yk5gqsM_una3mSJjagre">
    <mxGraphModel>
      <root>
        <mxCell id="0" />
        <mxCell id="1" parent="0" />
      </root>
    </mxGraphModel>
  </diagram>
</mxfile>
